<svg width="76" height="76" viewBox="0 0 76 76" fill="none" xmlns="http://www.w3.org/2000/svg">
<path d="M19.8048 50.7233L19.7045 50.2391L19.2193 50.334C18.7521 50.4253 18.2711 50.473 17.7798 50.473C13.2541 50.473 9.5 46.3902 9.5 41.2432C9.5 36.0962 13.2541 32.0135 17.7798 32.0135C18.2225 32.0135 18.6567 32.0522 19.0799 32.1266L19.726 32.2402L19.6643 31.5872C19.6285 31.2073 19.6101 30.8221 19.6101 30.4324C19.6101 23.8349 24.873 18.5 31.3486 18.5C35.4233 18.5 39.0161 20.6104 41.1224 23.8214L41.5243 24.4341L41.9483 23.8364C43.5412 21.5909 46.1827 20.1216 49.1743 20.1216C54.0473 20.1216 57.9862 24.0181 57.9862 28.8108C57.9862 28.879 57.9854 28.947 57.9839 29.0149L57.9741 29.4321L58.3829 29.5163C63.0087 30.469 66.5 34.6272 66.5 39.6216C66.5 45.3236 61.9518 49.9324 56.3578 49.9324C55.8121 49.9324 55.2768 49.8887 54.7551 49.8045L54.3418 49.7378L54.2035 50.133C52.7069 54.4098 48.5249 57.5 43.5872 57.5C40.1559 57.5 37.0885 56.0076 35.0341 53.6602L34.5934 53.1567L34.2354 53.722C32.7837 56.0146 30.3567 57.5 27.6239 57.5C23.8298 57.5 20.6137 54.6282 19.8048 50.7233Z" stroke="#001030"/>
</svg>
