<svg width="76" height="76" viewBox="0 0 76 76" fill="none" xmlns="http://www.w3.org/2000/svg">
<path d="M46.0046 32.3483C45.8743 32.5321 45.8829 32.7804 46.0259 32.9547C46.1688 33.1289 46.4106 33.186 46.6164 33.0941C47.8124 32.5599 49.1274 32.2645 50.5086 32.2645C56.0028 32.2645 60.4998 36.9591 60.4998 42.8045C60.4998 48.6499 56.0028 53.3445 50.5086 53.3445C47.2111 53.3445 44.2788 51.6585 42.4551 49.0435C42.3129 48.8396 42.0426 48.7711 41.8205 48.8827C41.5984 48.9943 41.492 49.2521 41.5707 49.4879C41.6336 49.6761 41.7117 49.8543 41.8093 50.0151C42.9904 51.96 44.0657 53.3652 45.2489 54.9115L45.2533 54.9172C45.7073 55.5104 46.1768 56.1241 46.6769 56.7997C47.4851 57.8917 47.4529 58.8283 47.1746 59.4729C47.0303 59.8071 46.8152 60.0742 46.5937 60.2538C46.3622 60.4415 46.1678 60.5 46.07 60.5H29.9299C29.8322 60.5 29.6377 60.4415 29.4062 60.2538C29.1847 60.0742 28.9696 59.8071 28.8253 59.4729C28.547 58.8283 28.5148 57.8917 29.323 56.7997C29.8231 56.1241 30.2926 55.5105 30.7466 54.9172L30.7509 54.9115C31.9341 53.3653 33.0095 51.96 34.1906 50.0151C34.2883 49.8542 34.3664 49.6758 34.4293 49.4875C34.508 49.2517 34.4016 48.994 34.1795 48.8824C33.9574 48.7708 33.6871 48.8393 33.5449 49.0432C31.7212 51.6584 28.7889 53.3445 25.4912 53.3445C19.9969 53.3445 15.5 48.6499 15.5 42.8045C15.5 36.9591 19.9969 32.2645 25.4912 32.2645C26.8725 32.2645 28.1875 32.5599 29.3836 33.0942C29.5893 33.1861 29.8312 33.129 29.9741 32.9548C30.117 32.7805 30.1257 32.5322 29.9953 32.3484C28.7487 30.5911 28.0088 28.4083 28.0088 26.04C28.0088 20.1946 32.5057 15.5 38 15.5C43.4942 15.5 47.9911 20.1946 47.9911 26.04C47.9911 28.4083 47.2512 30.591 46.0046 32.3483Z" stroke="#001030" fill="#52be80" stroke-linejoin="round"/>
</svg>
