<svg width="76" height="76" viewBox="0 0 76 76" fill="none" xmlns="http://www.w3.org/2000/svg">
<path d="M37.574 22.8124L38 23.5056L38.426 22.8124C41.0388 18.5608 45.1367 17.5 47.7458 17.5C49.0778 17.5 52.274 17.6835 55.1249 19.5247C57.9377 21.3411 60.5 24.8267 60.5 31.6167C60.5 37.7078 56.9268 43.1674 52.2437 47.7735C47.6664 52.2755 42.099 55.8932 37.9996 58.4135C37.7684 58.2721 37.5325 58.1281 37.2926 57.9817C33.262 55.5218 28.0676 52.3516 23.7499 48.253C19.0811 43.8212 15.5 38.3619 15.5 31.6167C15.5 24.8267 18.0624 21.3411 20.8751 19.5247C23.726 17.6835 26.9222 17.5 28.2542 17.5C30.8633 17.5 34.9612 18.5608 37.574 22.8124Z" stroke="#001030" fill="#ec7063"/>
</svg>
