<svg width="76" height="76" viewBox="0 0 76 76" fill="none" xmlns="http://www.w3.org/2000/svg">
<path d="M42.5481 48.9083C42.4049 48.7053 42.1345 48.6383 41.913 48.7508C41.6916 48.8633 41.5864 49.1213 41.6659 49.3566C41.7302 49.5469 41.81 49.727 41.9098 49.8893C43.1183 51.8561 44.2186 53.2772 45.4294 54.841L45.4338 54.8468C45.8983 55.4467 46.379 56.0675 46.8907 56.7507C47.7187 57.8564 47.6853 58.8038 47.4005 59.4558C47.2527 59.7942 47.0321 60.0653 46.804 60.248C46.5663 60.4384 46.364 60.5 46.2586 60.5H29.7414C29.636 60.5 29.4337 60.4384 29.1959 60.248C28.9679 60.0653 28.7473 59.7942 28.5995 59.4558C28.3147 58.8038 28.2813 57.8564 29.1093 56.7507C29.621 56.0675 30.1017 55.4467 30.5662 54.8468L30.5706 54.841C31.7814 53.2772 32.8817 51.8561 34.0902 49.8893C34.19 49.727 34.2698 49.5469 34.3341 49.3566C34.4136 49.1213 34.3084 48.8633 34.0869 48.7508C33.8655 48.6383 33.5951 48.7053 33.4519 48.9083C31.5847 51.5544 28.5805 53.263 25.1992 53.263C19.5879 53.263 15.5 48.6887 15.5 42.7543C15.5 41.3187 15.9892 39.7424 16.757 38.162C17.5223 36.5866 18.5478 35.0404 19.5818 33.674C20.6147 32.3091 21.6488 31.1329 22.4252 30.2978C22.8131 29.8805 23.1359 29.549 23.3612 29.3225C23.4739 29.2092 23.562 29.1222 23.6217 29.0639C23.6516 29.0347 23.6743 29.0127 23.6893 28.9982L23.7061 28.982L23.7092 28.9791L23.7101 28.9782L38 15.6829L52.2888 28.9772L52.289 28.9774L52.2899 28.9782L52.2932 28.9814L52.2938 28.982L52.3106 28.9982C52.3257 29.0127 52.3484 29.0347 52.3783 29.0639C52.4379 29.1222 52.5261 29.2092 52.6388 29.3225C52.8641 29.549 53.1869 29.8805 53.5748 30.2978C54.3512 31.1329 55.3853 32.3091 56.4182 33.674C57.4522 35.0404 58.4777 36.5866 59.243 38.162C60.0108 39.7424 60.5 41.3187 60.5 42.7543C60.5 48.6887 56.4121 53.263 50.8008 53.263C47.4195 53.263 44.4153 51.5544 42.5481 48.9083Z" stroke="#001030" fill="#5dade2" stroke-linejoin="round"/>
</svg>
