<svg width="76" height="76" viewBox="0 0 76 76" fill="none" xmlns="http://www.w3.org/2000/svg">
<path d="M44.7359 30.0581L44.8443 30.4115H45.2139H61.6628C63.4082 30.4115 64.1754 32.6545 62.7739 33.7333L49.3674 44.0525L49.0928 44.264L49.1944 44.5954L54.2537 61.0917C54.7855 62.8257 52.7994 64.1938 51.392 63.1105L38.305 53.0371L38 52.8023L37.695 53.0371L24.608 63.1105C23.2006 64.1938 21.2145 62.8257 21.7463 61.0917L26.8056 44.5954L26.9072 44.264L26.6326 44.0525L13.2261 33.7333C11.8246 32.6545 12.5918 30.4115 14.3372 30.4115H30.7861H31.1557L31.2641 30.0581L36.2494 13.803C36.7822 12.0657 39.2178 12.0657 39.7506 13.803L44.7359 30.0581Z" stroke="#001030" fill="#f4d03f"/>
</svg>
