<svg width="76" height="76" viewBox="0 0 76 76" fill="none" xmlns="http://www.w3.org/2000/svg">
<path d="M55.7007 22.3711L47.47 30.5976L47.1162 30.9512L47.47 31.3049L54.2593 38.0907L54.2595 38.0908L54.267 38.0984L54.2686 38.1L54.3255 38.1574C54.3258 38.1577 54.3261 38.158 54.3264 38.1583C56.5152 40.385 57.6558 43.4875 57.4829 46.8088C57.3163 50.0083 55.9427 53.1575 53.6388 55.6204L45.2489 47.2349L44.8954 46.8816L44.542 47.2349L38.0445 53.7289L38.0338 53.7182L37.6805 54.0885C37.6219 54.15 37.5624 54.2108 37.5022 54.271C35.2728 56.4993 32.141 57.6607 28.7839 57.4821C25.5822 57.3118 22.4294 55.935 19.962 53.6289L28.5994 44.996L28.9533 44.6423L28.5994 44.2887L21.7405 37.4333C19.508 35.202 18.3425 32.0702 18.5171 28.7153C18.6837 25.5158 20.0573 22.3667 22.3612 19.9037L30.8205 28.3586L31.1739 28.7119L31.5274 28.3586L38.2614 21.6281L38.3715 21.5239C40.585 19.4299 43.6261 18.3449 46.8789 18.5179C50.0806 18.6882 53.2334 20.065 55.7007 22.3711Z" fill="#989fc1" stroke="#001030"/>
</svg>
